<svg xmlns="http://www.w3.org/2000/svg" width="1024" height="1024" viewBox="0 0 1024 1024" version="1.1"><path d="M 660.113 167.750 C 660.175 168.162, 662.988 170.961, 666.363 173.970 L 672.500 179.439 666.531 173.220 C 660.456 166.889, 659.914 166.427, 660.113 167.750" stroke="none" fill="#bc4444" fill-rule="evenodd"/><path d="M 493.500 52.636 C 484.314 54.994, 472.228 60.578, 465 65.803 C 459.531 69.756, 431 98.257, 431 99.767 C 431 100.510, 430.613 100.879, 430.141 100.587 C 429.467 100.171, 226.489 303.029, 136.376 394.179 C 126.958 403.706, 117.733 412.919, 115.876 414.652 C 106.056 423.822, 68.768 462.165, 65.673 466.276 C 61.876 471.319, 57.352 480.176, 54.321 488.500 C 52.806 492.661, 52.500 496.605, 52.500 512 C 52.500 529.048, 52.688 531.010, 54.898 537 C 58.198 545.948, 63.147 555.051, 68.386 561.810 C 73.724 568.698, 130.297 625, 131.880 625 C 132.496 625, 133 625.533, 133 626.184 C 133 627.629, 244.523 739, 245.971 739 C 246.537 739, 247 739.381, 247 739.847 C 247 741.354, 249.710 744.106, 355.801 850.348 C 461.946 956.644, 467.524 961.899, 479 966.417 C 492.073 971.564, 491.648 971.500, 512.601 971.500 C 525.695 971.500, 533.537 971.099, 535.101 970.350 C 539.863 968.066, 546.990 965, 547.534 965 C 547.840 965, 551.332 962.772, 555.295 960.050 C 560.522 956.458, 616.198 901.339, 758.072 759.300 C 954.111 563.032, 963 553.849, 963 547.595 C 963 546.718, 963.398 546, 963.883 546 C 964.369 546, 965.048 545.212, 965.393 544.250 C 969.525 532.695, 970.790 527.275, 971.403 518.500 C 972.096 508.565, 969.843 488.639, 967.890 487.432 C 967.400 487.129, 967 486.229, 967 485.430 C 967 483.009, 962.897 474.903, 957.925 467.500 C 950.918 457.068, 849.277 355.153, 842.500 351.765 C 829.774 345.402, 816.456 347.074, 806.359 356.303 C 799.142 362.899, 796.691 368.296, 796.193 378.692 C 795.512 392.871, 795.153 392.390, 840.370 437.781 C 861.891 459.385, 879.650 477.498, 879.833 478.031 C 880.047 478.652, 848.382 479, 791.733 479 L 703.299 479 652.728 428.250 C 624.914 400.338, 589.260 364.511, 573.497 348.635 L 544.838 319.770 544.669 231.385 C 544.576 182.774, 544.828 143.113, 545.229 143.250 C 545.630 143.388, 588.605 186.079, 640.729 238.121 C 692.853 290.163, 736.850 333.424, 738.500 334.258 C 740.150 335.091, 744.337 336.565, 747.804 337.533 C 753.352 339.083, 754.790 339.136, 759.804 337.980 C 762.937 337.257, 766.789 336.028, 768.364 335.248 C 772.145 333.377, 780 326.091, 780 324.456 C 780 323.747, 780.448 323.017, 780.995 322.833 C 782.846 322.214, 786 311.581, 785.985 306.014 C 785.967 299.395, 784.572 295.102, 780.286 288.472 C 778.518 285.737, 753.294 259.875, 724.231 231 C 658.516 165.708, 669.173 176.343, 610.928 117.930 C 555.078 61.920, 553.877 60.927, 534 54.279 C 529.505 52.776, 497.942 51.495, 493.500 52.636 M 309.733 310.705 C 215.907 404.597, 139.360 481.774, 139.629 482.209 C 139.898 482.644, 179.648 483, 227.962 483 L 315.806 483 341.153 457.391 C 416.697 381.065, 471.592 326, 472.137 326 C 472.475 326, 474.599 324.261, 476.856 322.136 L 480.959 318.272 481.022 229.512 C 481.056 180.693, 480.914 140.580, 480.705 140.372 C 480.496 140.163, 403.559 216.813, 309.733 310.705 M 443.933 444.530 C 407.395 481.121, 377.500 511.496, 377.500 512.029 C 377.500 512.562, 407.644 543.146, 444.486 579.993 L 511.472 646.989 520.311 638.244 C 527.571 631.062, 644.471 513.982, 645.950 512.412 C 646.585 511.737, 512.753 378, 511.443 378 C 510.850 378, 480.470 407.938, 443.933 444.530 M 704 544.182 C 704 545.821, 547.265 702.150, 543.250 704.516 L 540 706.431 540 795.799 C 540 852.039, 540.353 885.043, 540.954 884.833 C 541.478 884.650, 586.016 840.513, 639.927 786.750 C 693.838 732.987, 738.379 689, 738.906 689 C 739.434 689, 740.117 688.212, 740.424 687.250 C 740.731 686.288, 772.712 653.779, 811.491 615.010 C 850.271 576.240, 882 544.177, 882 543.760 C 882 543.342, 841.950 543, 793 543 C 725.200 543, 704 543.282, 704 544.182 M 309.433 713 C 400.732 804.300, 475.559 879, 475.715 879 C 475.872 879, 476 839.280, 476 790.733 L 476 702.466 398.383 624.733 L 320.765 547 232.100 547 L 143.435 547 309.433 713" stroke="none" fill="#c44444" fill-rule="evenodd"/></svg>