<svg xmlns="http://www.w3.org/2000/svg" width="1024" height="1024" viewBox="0 0 1024 1024" version="1.1"><path d="M 672.153 899.638 C 670.312 901.563, 668.991 903.324, 669.218 903.551 C 669.444 903.778, 671.380 902.172, 673.518 899.982 C 675.656 897.792, 676.977 896.031, 676.453 896.069 C 675.929 896.107, 673.994 897.713, 672.153 899.638" stroke="none" fill="#bc4444" fill-rule="evenodd"/><path d="M 491 0.875 C 480.863 3.834, 479 4.506, 479 5.207 C 479 5.643, 478.371 6, 477.602 6 C 475.728 6, 465.361 11.498, 461 14.805 C 453.920 20.173, 444.087 29.771, 414.955 59.750 C 411.080 63.738, 407.698 67, 407.439 67 C 406.552 67, 232 242.219, 232 243.110 C 232 243.599, 231.601 244, 231.113 244 C 230.625 244, 220.837 253.492, 209.363 265.093 C 197.888 276.695, 155.762 318.946, 115.750 358.985 C 75.737 399.024, 43 432.282, 43 432.892 C 43 433.501, 42.586 434, 42.079 434 C 40.879 434, 32 442.879, 32 444.079 C 32 444.586, 31.505 445, 30.901 445 C 29.887 445, 22.526 452.165, 18.983 456.601 C 12.393 464.852, 8 472.024, 8 474.530 C 8 475.339, 7.550 476, 7 476 C 6.450 476, 6 477.350, 6 479 C 6 480.650, 5.643 482, 5.207 482 C 4.771 482, 3.533 484.587, 2.457 487.750 C -0.351 496.001, -0.439 528.932, 2.328 536.500 C 4.445 542.292, 5.872 545.790, 7.117 548.236 C 7.603 549.191, 8 550.654, 8 551.486 C 8 552.319, 8.338 553.005, 8.750 553.011 C 9.162 553.018, 10.353 554.803, 11.395 556.978 C 12.437 559.154, 14.012 561.736, 14.895 562.718 C 15.778 563.699, 17.845 566.301, 19.489 568.501 C 22.638 572.714, 79.427 630, 80.455 630 C 81.192 630, 90 638.744, 90 639.476 C 90 640.329, 120.519 671, 121.368 671 C 122.283 671, 125 673.590, 125 674.462 C 125 675.208, 131.728 682, 132.467 682 C 132.761 682, 136.488 685.635, 140.750 690.079 C 149.935 699.653, 172.272 722.042, 174.169 723.575 C 174.901 724.166, 176.394 725.854, 177.487 727.325 C 178.580 728.796, 179.833 730, 180.271 730 C 181.165 730, 188 736.624, 188 737.491 C 188 738.194, 203.573 753.494, 208.367 757.500 C 210.341 759.150, 211.967 760.870, 211.978 761.321 C 212.010 762.516, 214.677 765, 215.929 765 C 216.518 765, 217 765.465, 217 766.033 C 217 767.236, 452.394 1002.787, 458.806 1008 C 461.173 1009.925, 463.648 1011.680, 464.305 1011.900 C 464.962 1012.120, 465.725 1012.570, 466 1012.900 C 467.106 1014.228, 475.312 1018, 477.095 1018 C 478.143 1018, 479.004 1018.337, 479.009 1018.750 C 479.013 1019.163, 481.826 1020.400, 485.259 1021.500 C 490.703 1023.244, 494.247 1023.500, 513 1023.500 C 535.223 1023.500, 535.670 1023.434, 544.236 1018.916 C 545.191 1018.412, 546.654 1018, 547.486 1018 C 548.319 1018, 549 1017.550, 549 1017 C 549 1016.450, 549.649 1016, 550.443 1016 C 552.083 1016, 557.826 1012.825, 563 1009.057 C 567.955 1005.449, 599 974.450, 599 973.110 C 599 972.500, 599.430 972, 599.956 972 C 600.481 972, 608.346 964.462, 617.432 955.250 C 626.518 946.038, 635.136 937.375, 636.582 936 C 650.872 922.415, 669 904.370, 669 903.732 C 669 902.830, 675.625 896, 676.500 896 C 677.505 896, 684 889.101, 684 888.033 C 684 887.465, 684.477 887, 685.060 887 C 686.474 887, 721 852.960, 721 851.565 C 721 850.965, 722.213 849.580, 723.696 848.487 C 727.244 845.872, 732 840.926, 732 839.852 C 732 839.383, 732.563 839, 733.250 839.001 C 734.689 839.001, 911 662.396, 911 660.954 C 911 660.429, 911.447 660, 911.994 660 C 912.541 660, 930.428 642.498, 951.744 621.106 C 998.780 573.904, 1005 567.503, 1005 566.308 C 1005 565.796, 1005.788 564.505, 1006.750 563.439 C 1009.732 560.135, 1014 553.120, 1014 551.521 C 1014 550.685, 1014.450 550, 1015 550 C 1015.550 550, 1016 549.100, 1016 548 C 1016 546.900, 1016.450 546, 1017 546 C 1017.550 546, 1018 544.650, 1018 543 C 1018 541.350, 1018.344 540, 1018.763 540 C 1019.807 540, 1022.185 530.706, 1022.857 524 L 1023.408 518.500 1024.054 523 C 1024.409 525.475, 1024.690 520.075, 1024.677 511 C 1024.662 499.726, 1024.447 496.559, 1024 501 C 1023.370 507.254, 1023.339 507.314, 1023.173 502.588 C 1023.006 497.840, 1020.721 488.329, 1018.891 484.764 C 1018.401 483.809, 1018 482.148, 1018 481.073 C 1018 479.998, 1017.550 478.840, 1017 478.500 C 1016.450 478.160, 1016 477.046, 1016 476.024 C 1016 475.003, 1015.663 474.017, 1015.250 473.833 C 1014.837 473.650, 1013.377 471.273, 1012.005 468.551 C 1010.633 465.829, 1008.608 462.679, 1007.505 461.551 C 1006.402 460.423, 1004.918 458.375, 1004.206 457 C 1003.495 455.625, 976.045 427.703, 943.206 394.951 C 902.941 354.792, 882.085 334.686, 879.155 333.201 C 876.766 331.991, 873.279 331, 871.405 331 C 869.532 331, 868 330.550, 868 330 C 868 328.695, 857.307 328.695, 856.500 330 C 856.160 330.550, 855.002 331, 853.927 331 C 851.940 331, 851.172 331.306, 845.030 334.543 C 838.632 337.917, 830 348.471, 830 352.921 C 830 354, 829.550 355.160, 829 355.500 C 827.696 356.306, 827.696 372.694, 829 373.500 C 829.550 373.840, 830 375.161, 830 376.437 C 830 377.712, 830.661 379.303, 831.468 379.973 C 832.275 380.644, 832.838 381.657, 832.718 382.226 C 832.425 383.615, 835.726 387.059, 882.578 434.250 L 923.036 475 823.546 475 L 724.056 475 714.489 465.250 C 700.602 451.097, 675.509 425.920, 664.782 415.378 C 659.677 410.360, 654.150 404.633, 652.500 402.649 C 650.850 400.666, 649.130 399.033, 648.679 399.022 C 647.712 398.996, 645 396.419, 645 395.526 C 645 394.686, 640.259 390, 639.410 390 C 638.449 390, 634 385.079, 634 384.016 C 634 383.531, 633.100 382.849, 632 382.500 C 630.900 382.151, 630 381.221, 630 380.433 C 630 379.645, 629.622 379, 629.159 379 C 628.142 379, 619 370.476, 619 369.528 C 619 368.467, 616.252 366, 615.071 366 C 614.482 366, 614 365.521, 614 364.935 C 614 364.350, 599.319 349.231, 581.375 331.338 L 548.751 298.805 548.625 199.903 C 548.556 145.507, 548.726 101.001, 549.003 101 C 549.280 101, 576.503 128, 609.500 161 C 642.497 194, 670.058 221, 670.747 221 C 671.436 221, 672 221.518, 672 222.152 C 672 224.029, 761.340 312.952, 763.250 312.977 C 764.212 312.990, 765 313.450, 765 314 C 765 314.550, 766.125 315, 767.500 315 C 768.875 315, 770 315.399, 770 315.887 C 770 317.964, 782.011 318.883, 790.750 317.475 C 793.087 317.098, 795 316.387, 795 315.895 C 795 315.403, 795.900 315, 797 315 C 798.100 315, 799 314.550, 799 314 C 799 313.450, 799.567 313, 800.260 313 C 801.993 313, 810 305.095, 810 303.385 C 810 302.623, 810.340 302, 810.756 302 C 811.172 302, 812.109 300.538, 812.840 298.750 C 813.570 296.963, 814.692 294.418, 815.334 293.096 C 816.939 289.787, 816.858 273.786, 815.233 273.244 C 814.555 273.018, 814 271.985, 814 270.947 C 814 266.444, 809.647 260.772, 795.703 247.104 C 790.314 241.822, 781.539 233.074, 776.203 227.665 C 770.866 222.256, 762.961 214.381, 758.635 210.165 C 740.566 192.555, 694.201 145.894, 692.435 143.544 C 691.385 142.145, 690.160 141, 689.714 141 C 689.268 141, 684.537 136.491, 679.201 130.981 C 655.083 106.073, 580.810 32, 579.953 32 C 579.429 32, 579 31.548, 579 30.995 C 579 29.687, 568.635 19.941, 565.180 18 C 563.712 17.175, 561.984 15.803, 561.340 14.952 C 560.696 14.101, 558.337 12.526, 556.096 11.452 C 553.856 10.378, 552.018 9.162, 552.011 8.750 C 552.005 8.338, 551.319 8, 550.486 8 C 549.654 8, 548.191 7.603, 547.236 7.117 C 545.262 6.112, 542.645 5.077, 535.500 2.471 C 531.459 0.998, 526.953 0.600, 512 0.397 C 501.825 0.259, 492.375 0.474, 491 0.875 M 400.305 174.036 C 335.431 239.107, 207.972 366.638, 120.750 453.750 C 107.138 467.346, 96 478.813, 96 479.234 C 96 479.656, 140.940 480, 195.867 480 L 295.734 480 298.456 475.887 C 301.911 470.667, 466.957 305, 468.703 305 C 469.416 305, 470 304.311, 470 303.469 C 470 302.626, 470.778 301.639, 471.728 301.274 C 472.678 300.909, 474.478 299.508, 475.728 298.160 L 478 295.708 478.011 200.604 C 478.017 148.297, 478.301 103.813, 478.642 101.750 C 479.139 98.741, 478.950 98, 477.686 98 C 476.820 98, 441.998 132.216, 400.305 174.036 M 504.494 368.429 C 501.747 371.457, 499.050 373.959, 498.500 373.989 C 497.950 374.019, 496.150 375.679, 494.500 377.677 C 492.850 379.676, 462.363 410.536, 426.750 446.255 C 391.137 481.975, 362 511.534, 362 511.942 C 362 512.350, 395.637 546.474, 436.750 587.772 L 511.500 662.860 521 653.437 C 538.507 636.072, 560.680 613.727, 590.149 583.750 C 606.235 567.388, 619.982 554, 620.698 554 C 621.414 554, 622 553.529, 622 552.954 C 622 551.703, 630.144 543.010, 631.321 543.004 C 632.282 542.999, 635 540.427, 635 539.523 C 635 538.729, 654.704 519, 655.497 519 C 656.761 519, 661 514.011, 661 512.523 C 661 511.661, 654.700 504.821, 647 497.324 C 639.300 489.827, 633 483.087, 633 482.346 C 633 481.606, 632.438 480.990, 631.750 480.977 C 630.186 480.948, 620 470.686, 620 469.139 C 620 468.512, 619.462 468, 618.804 468 C 618.146 468, 594.066 444.488, 565.293 415.750 C 536.521 387.012, 512.194 363.371, 511.234 363.212 C 510.166 363.037, 507.549 365.063, 504.494 368.429 M 0.407 512 C 0.407 521.075, 0.559 524.788, 0.744 520.250 C 0.929 515.712, 0.929 508.288, 0.744 503.750 C 0.559 499.212, 0.407 502.925, 0.407 512 M 724.250 548.496 C 723.563 549.277, 723 550.260, 723 550.680 C 723 551.713, 675.718 598.990, 674.679 598.995 C 673.660 599.001, 671 601.596, 671 602.584 C 671 603.899, 649.633 625, 648.301 625 C 647.586 625, 647 625.462, 647 626.026 C 647 627.088, 638.494 636, 637.481 636 C 636.681 636, 632 640.763, 632 641.578 C 632 642.820, 549.200 724.769, 546.087 726.608 L 543 728.431 543 828.882 C 543 884.130, 543.199 929.146, 543.441 928.917 C 543.684 928.688, 569.252 903.188, 600.260 872.250 C 631.268 841.313, 657.170 816, 657.819 816 C 658.469 816, 659 815.423, 659 814.718 C 659 813.212, 695.453 777, 696.970 777 C 697.536 777, 698 776.458, 698 775.795 C 698 774.403, 763.673 709, 765.071 709 C 765.582 709, 766 708.488, 766 707.862 C 766 706.955, 861.306 610.389, 868.362 604.147 C 869.385 603.241, 870.735 601.977, 871.362 601.338 C 871.988 600.700, 884.367 588.212, 898.870 573.588 L 925.241 547 825.370 547.038 C 740.393 547.070, 725.314 547.288, 724.250 548.496 M 136.590 586.317 C 156.065 605.742, 172 621.974, 172 622.389 C 172 623.417, 174.656 626, 175.713 626 C 176.184 626, 242.843 692.375, 323.844 773.500 C 404.846 854.625, 471.318 921, 471.560 921 C 471.802 921, 471.997 876.563, 471.994 822.250 L 471.988 723.500 385.850 637.250 L 299.712 551 200.446 551 L 101.180 551 136.590 586.317" stroke="none" fill="#c44444" fill-rule="evenodd"/></svg>