<?xml version="1.0" encoding="UTF-8"?>
<svg xmlns="http://www.w3.org/2000/svg" xmlns:xlink="http://www.w3.org/1999/xlink" width="150px" height="150px" viewBox="0 0 150 150" version="1.1">
<g id="surface1">
<path style=" stroke:none;fill-rule:evenodd;fill:rgb(73.725492%,26.666668%,26.666668%);fill-opacity:1;" d="M 98.460938 131.78125 C 98.191406 132.066406 97.996094 132.324219 98.03125 132.355469 C 98.0625 132.390625 98.347656 132.152344 98.660156 131.832031 C 98.972656 131.511719 99.167969 131.253906 99.089844 131.261719 C 99.011719 131.265625 98.730469 131.5 98.460938 131.78125 "/>
<path style=" stroke:none;fill-rule:evenodd;fill:rgb(76.862746%,26.666668%,26.666668%);fill-opacity:1;" d="M 71.921875 0.128906 C 70.4375 0.5625 70.164062 0.660156 70.164062 0.761719 C 70.164062 0.828125 70.074219 0.878906 69.960938 0.878906 C 69.6875 0.878906 68.167969 1.683594 67.53125 2.167969 C 66.492188 2.953125 65.050781 4.359375 60.785156 8.753906 C 60.21875 9.335938 59.722656 9.8125 59.683594 9.8125 C 59.554688 9.8125 33.984375 35.480469 33.984375 35.613281 C 33.984375 35.683594 33.925781 35.742188 33.855469 35.742188 C 33.78125 35.742188 32.347656 37.132812 30.667969 38.832031 C 28.988281 40.53125 22.816406 46.71875 16.957031 52.585938 C 11.09375 58.449219 6.296875 63.324219 6.296875 63.410156 C 6.296875 63.5 6.238281 63.574219 6.164062 63.574219 C 5.988281 63.574219 4.6875 64.875 4.6875 65.050781 C 4.6875 65.125 4.613281 65.1875 4.527344 65.1875 C 4.378906 65.1875 3.300781 66.234375 2.78125 66.886719 C 1.816406 68.09375 1.171875 69.144531 1.171875 69.511719 C 1.171875 69.628906 1.105469 69.726562 1.023438 69.726562 C 0.945312 69.726562 0.878906 69.925781 0.878906 70.164062 C 0.878906 70.40625 0.828125 70.605469 0.761719 70.605469 C 0.699219 70.605469 0.515625 70.984375 0.359375 71.449219 C -0.0507812 72.65625 -0.0625 77.480469 0.339844 78.589844 C 0.652344 79.4375 0.859375 79.949219 1.042969 80.308594 C 1.113281 80.449219 1.171875 80.664062 1.171875 80.785156 C 1.171875 80.90625 1.222656 81.007812 1.28125 81.007812 C 1.34375 81.007812 1.515625 81.269531 1.667969 81.589844 C 1.820312 81.90625 2.050781 82.285156 2.183594 82.429688 C 2.3125 82.574219 2.613281 82.953125 2.855469 83.277344 C 3.316406 83.894531 11.636719 92.285156 11.785156 92.285156 C 11.894531 92.285156 13.183594 93.566406 13.183594 93.671875 C 13.183594 93.796875 17.652344 98.289062 17.777344 98.289062 C 17.914062 98.289062 18.3125 98.671875 18.3125 98.796875 C 18.3125 98.90625 19.296875 99.902344 19.40625 99.902344 C 19.449219 99.902344 19.992188 100.433594 20.617188 101.085938 C 21.964844 102.488281 25.234375 105.769531 25.511719 105.992188 C 25.621094 106.078125 25.839844 106.328125 26 106.542969 C 26.160156 106.757812 26.34375 106.933594 26.40625 106.933594 C 26.539062 106.933594 27.539062 107.902344 27.539062 108.03125 C 27.539062 108.132812 29.820312 110.375 30.523438 110.960938 C 30.8125 111.203125 31.050781 111.457031 31.050781 111.523438 C 31.054688 111.695312 31.445312 112.0625 31.628906 112.0625 C 31.714844 112.0625 31.789062 112.128906 31.789062 112.210938 C 31.789062 112.386719 66.269531 146.894531 67.207031 147.65625 C 67.554688 147.9375 67.917969 148.195312 68.011719 148.226562 C 68.109375 148.257812 68.222656 148.324219 68.261719 148.375 C 68.421875 148.570312 69.625 149.121094 69.886719 149.121094 C 70.039062 149.121094 70.167969 149.171875 70.167969 149.230469 C 70.167969 149.292969 70.578125 149.472656 71.082031 149.632812 C 71.878906 149.890625 72.398438 149.925781 75.148438 149.925781 C 78.402344 149.925781 78.46875 149.917969 79.722656 149.253906 C 79.863281 149.179688 80.078125 149.121094 80.199219 149.121094 C 80.320312 149.121094 80.421875 149.054688 80.421875 148.976562 C 80.421875 148.894531 80.515625 148.828125 80.632812 148.828125 C 80.871094 148.828125 81.710938 148.363281 82.46875 147.8125 C 83.195312 147.28125 87.742188 142.742188 87.742188 142.546875 C 87.742188 142.457031 87.808594 142.382812 87.882812 142.382812 C 87.960938 142.382812 89.113281 141.277344 90.445312 139.929688 C 91.773438 138.578125 93.039062 137.3125 93.25 137.109375 C 95.34375 135.121094 98 132.476562 98 132.382812 C 98 132.25 98.96875 131.25 99.097656 131.25 C 99.242188 131.25 100.195312 130.238281 100.195312 130.082031 C 100.195312 130 100.265625 129.929688 100.351562 129.929688 C 100.558594 129.929688 105.617188 124.945312 105.617188 124.742188 C 105.617188 124.652344 105.792969 124.449219 106.011719 124.289062 C 106.53125 123.90625 107.226562 123.183594 107.226562 123.023438 C 107.226562 122.957031 107.308594 122.898438 107.410156 122.902344 C 107.621094 122.902344 133.445312 97.03125 133.445312 96.820312 C 133.445312 96.742188 133.511719 96.679688 133.59375 96.679688 C 133.671875 96.679688 136.292969 94.117188 139.414062 90.980469 C 146.304688 84.066406 147.21875 83.128906 147.21875 82.957031 C 147.21875 82.878906 147.332031 82.691406 147.472656 82.535156 C 147.910156 82.050781 148.535156 81.023438 148.535156 80.789062 C 148.535156 80.667969 148.601562 80.566406 148.679688 80.566406 C 148.761719 80.566406 148.828125 80.433594 148.828125 80.273438 C 148.828125 80.113281 148.894531 79.980469 148.976562 79.980469 C 149.054688 79.980469 149.121094 79.78125 149.121094 79.539062 C 149.121094 79.300781 149.171875 79.101562 149.234375 79.101562 C 149.386719 79.101562 149.734375 77.738281 149.832031 76.757812 L 149.914062 75.953125 L 150.007812 76.609375 C 150.058594 76.972656 150.101562 76.183594 150.097656 74.851562 C 150.097656 73.203125 150.066406 72.738281 150 73.390625 C 149.90625 74.304688 149.902344 74.3125 149.878906 73.621094 C 149.855469 72.925781 149.519531 71.53125 149.25 71.011719 C 149.179688 70.871094 149.121094 70.628906 149.121094 70.46875 C 149.121094 70.3125 149.054688 70.140625 148.976562 70.09375 C 148.894531 70.042969 148.828125 69.878906 148.828125 69.730469 C 148.828125 69.582031 148.777344 69.4375 148.71875 69.410156 C 148.65625 69.382812 148.445312 69.035156 148.242188 68.636719 C 148.042969 68.238281 147.746094 67.773438 147.582031 67.609375 C 147.421875 67.445312 147.203125 67.144531 147.101562 66.945312 C 146.996094 66.742188 142.976562 62.652344 138.164062 57.855469 C 132.265625 51.972656 129.210938 49.027344 128.78125 48.808594 C 128.433594 48.632812 127.921875 48.484375 127.648438 48.484375 C 127.371094 48.484375 127.148438 48.421875 127.148438 48.339844 C 127.148438 48.148438 125.582031 48.148438 125.464844 48.339844 C 125.414062 48.421875 125.246094 48.484375 125.085938 48.484375 C 124.796875 48.484375 124.683594 48.53125 123.785156 49.003906 C 122.847656 49.5 121.582031 51.046875 121.582031 51.699219 C 121.582031 51.855469 121.515625 52.027344 121.4375 52.074219 C 121.246094 52.191406 121.246094 54.59375 121.4375 54.710938 C 121.515625 54.761719 121.582031 54.957031 121.582031 55.140625 C 121.582031 55.328125 121.679688 55.5625 121.796875 55.660156 C 121.914062 55.757812 121.996094 55.90625 121.980469 55.988281 C 121.9375 56.195312 122.421875 56.699219 129.285156 63.609375 L 135.210938 69.578125 L 106.0625 69.578125 L 104.660156 68.152344 C 102.628906 66.078125 98.953125 62.390625 97.378906 60.847656 C 96.632812 60.109375 95.824219 59.273438 95.582031 58.980469 C 95.339844 58.691406 95.085938 58.453125 95.019531 58.449219 C 94.878906 58.445312 94.484375 58.070312 94.484375 57.9375 C 94.484375 57.816406 93.789062 57.128906 93.664062 57.128906 C 93.523438 57.128906 92.871094 56.40625 92.871094 56.253906 C 92.871094 56.179688 92.738281 56.082031 92.578125 56.03125 C 92.417969 55.980469 92.285156 55.84375 92.285156 55.726562 C 92.285156 55.613281 92.230469 55.515625 92.160156 55.515625 C 92.011719 55.515625 90.671875 54.269531 90.671875 54.128906 C 90.671875 53.976562 90.269531 53.613281 90.097656 53.613281 C 90.011719 53.613281 89.941406 53.542969 89.941406 53.457031 C 89.941406 53.371094 87.789062 51.15625 85.164062 48.535156 L 80.382812 43.769531 L 80.363281 29.28125 C 80.355469 21.316406 80.378906 14.796875 80.421875 14.796875 C 80.460938 14.796875 84.449219 18.75 89.28125 23.585938 C 94.117188 28.417969 98.152344 32.375 98.253906 32.375 C 98.355469 32.375 98.4375 32.449219 98.4375 32.542969 C 98.4375 32.816406 111.523438 45.84375 111.804688 45.847656 C 111.945312 45.847656 112.0625 45.914062 112.0625 45.996094 C 112.0625 46.078125 112.226562 46.140625 112.425781 46.140625 C 112.628906 46.140625 112.792969 46.199219 112.792969 46.273438 C 112.792969 46.578125 114.550781 46.710938 115.832031 46.503906 C 116.175781 46.449219 116.453125 46.347656 116.453125 46.273438 C 116.453125 46.203125 116.585938 46.140625 116.75 46.140625 C 116.910156 46.140625 117.039062 46.078125 117.039062 45.996094 C 117.039062 45.914062 117.125 45.851562 117.226562 45.851562 C 117.480469 45.851562 118.652344 44.691406 118.652344 44.441406 C 118.652344 44.328125 118.703125 44.238281 118.761719 44.238281 C 118.824219 44.238281 118.960938 44.023438 119.066406 43.761719 C 119.175781 43.5 119.339844 43.128906 119.433594 42.933594 C 119.667969 42.449219 119.65625 40.105469 119.417969 40.027344 C 119.320312 39.992188 119.238281 39.839844 119.238281 39.691406 C 119.238281 39.03125 118.601562 38.199219 116.558594 36.195312 C 115.769531 35.421875 114.484375 34.140625 113.703125 33.347656 C 112.917969 32.558594 111.761719 31.402344 111.128906 30.785156 C 108.480469 28.207031 101.691406 21.371094 101.429688 21.027344 C 101.277344 20.820312 101.097656 20.65625 101.03125 20.65625 C 100.96875 20.65625 100.273438 19.992188 99.492188 19.1875 C 95.960938 15.539062 85.078125 4.6875 84.953125 4.6875 C 84.878906 4.6875 84.8125 4.621094 84.8125 4.539062 C 84.8125 4.347656 83.296875 2.921875 82.789062 2.636719 C 82.574219 2.515625 82.320312 2.316406 82.226562 2.191406 C 82.132812 2.066406 81.789062 1.835938 81.460938 1.675781 C 81.132812 1.519531 80.863281 1.34375 80.859375 1.28125 C 80.859375 1.222656 80.757812 1.171875 80.636719 1.171875 C 80.515625 1.171875 80.300781 1.113281 80.160156 1.042969 C 79.871094 0.894531 79.488281 0.742188 78.441406 0.363281 C 77.851562 0.144531 77.191406 0.0898438 75 0.0585938 C 73.507812 0.0390625 72.125 0.0703125 71.921875 0.128906 M 58.636719 25.492188 C 49.136719 35.027344 30.464844 53.707031 17.6875 66.46875 C 15.695312 68.457031 14.0625 70.136719 14.0625 70.199219 C 14.0625 70.261719 20.644531 70.3125 28.691406 70.3125 L 43.320312 70.3125 L 43.71875 69.710938 C 44.226562 68.945312 68.402344 44.679688 68.65625 44.679688 C 68.761719 44.679688 68.847656 44.578125 68.847656 44.453125 C 68.847656 44.328125 68.960938 44.183594 69.101562 44.132812 C 69.238281 44.078125 69.503906 43.875 69.6875 43.675781 L 70.019531 43.316406 L 70.019531 29.386719 C 70.023438 21.722656 70.0625 15.207031 70.113281 14.90625 C 70.1875 14.464844 70.160156 14.355469 69.972656 14.355469 C 69.847656 14.355469 64.746094 19.367188 58.636719 25.492188 M 73.902344 53.96875 C 73.5 54.414062 73.101562 54.777344 73.023438 54.785156 C 72.941406 54.789062 72.679688 55.03125 72.4375 55.324219 C 72.195312 55.617188 67.730469 60.136719 62.511719 65.371094 C 57.296875 70.601562 53.027344 74.933594 53.027344 74.992188 C 53.027344 75.050781 57.953125 80.050781 63.976562 86.097656 L 74.925781 97.097656 L 76.320312 95.71875 C 78.882812 93.175781 82.132812 89.902344 86.449219 85.511719 C 88.804688 83.113281 90.816406 81.152344 90.921875 81.152344 C 91.027344 81.152344 91.113281 81.082031 91.113281 81 C 91.113281 80.816406 92.304688 79.542969 92.480469 79.542969 C 92.621094 79.539062 93.015625 79.164062 93.015625 79.03125 C 93.015625 78.914062 95.902344 76.023438 96.019531 76.023438 C 96.207031 76.023438 96.828125 75.292969 96.828125 75.078125 C 96.828125 74.949219 95.902344 73.949219 94.773438 72.851562 C 93.648438 71.753906 92.726562 70.765625 92.726562 70.65625 C 92.726562 70.546875 92.640625 70.457031 92.542969 70.457031 C 92.3125 70.453125 90.820312 68.949219 90.820312 68.722656 C 90.820312 68.628906 90.742188 68.554688 90.644531 68.554688 C 90.546875 68.554688 87.019531 65.109375 82.804688 60.902344 C 78.59375 56.691406 75.027344 53.226562 74.886719 53.203125 C 74.730469 53.179688 74.347656 53.476562 73.902344 53.96875 M 0.0585938 75 C 0.0585938 76.328125 0.0820312 76.875 0.109375 76.207031 C 0.136719 75.542969 0.136719 74.457031 0.109375 73.792969 C 0.0820312 73.125 0.0585938 73.671875 0.0585938 75 M 106.089844 80.347656 C 105.992188 80.460938 105.90625 80.605469 105.90625 80.667969 C 105.90625 80.816406 98.980469 87.742188 98.828125 87.742188 C 98.679688 87.746094 98.289062 88.125 98.289062 88.269531 C 98.289062 88.460938 95.160156 91.554688 94.964844 91.554688 C 94.859375 91.554688 94.773438 91.621094 94.773438 91.703125 C 94.773438 91.859375 93.53125 93.164062 93.382812 93.164062 C 93.265625 93.164062 92.578125 93.863281 92.578125 93.980469 C 92.578125 94.164062 80.449219 106.167969 79.992188 106.4375 L 79.539062 106.703125 L 79.539062 121.417969 C 79.539062 129.511719 79.570312 136.105469 79.605469 136.070312 C 79.640625 136.039062 83.386719 132.304688 87.929688 127.769531 C 92.472656 123.238281 96.265625 119.53125 96.359375 119.53125 C 96.457031 119.53125 96.53125 119.445312 96.53125 119.34375 C 96.53125 119.121094 101.871094 113.820312 102.09375 113.820312 C 102.179688 113.820312 102.246094 113.738281 102.246094 113.640625 C 102.246094 113.4375 111.867188 103.859375 112.070312 103.859375 C 112.144531 103.859375 112.207031 103.78125 112.207031 103.691406 C 112.207031 103.558594 126.167969 89.414062 127.203125 88.5 C 127.351562 88.367188 127.550781 88.179688 127.640625 88.085938 C 127.734375 87.992188 129.546875 86.164062 131.671875 84.023438 L 135.535156 80.125 L 120.902344 80.132812 C 108.457031 80.136719 106.246094 80.167969 106.089844 80.347656 M 20.007812 85.886719 C 22.859375 88.730469 25.195312 91.109375 25.195312 91.171875 C 25.195312 91.320312 25.585938 91.699219 25.738281 91.699219 C 25.808594 91.699219 35.574219 101.421875 47.4375 113.304688 C 59.304688 125.1875 69.039062 134.914062 69.078125 134.914062 C 69.113281 134.914062 69.140625 128.402344 69.140625 120.445312 L 69.140625 105.980469 L 56.519531 93.347656 L 43.902344 80.710938 L 14.820312 80.710938 L 20.007812 85.886719 "/>
</g>
</svg>
