<svg xmlns="http://www.w3.org/2000/svg" width="1024" height="1024" viewBox="0 0 1024 1024" version="1.1"><path d="M 608.113 167.750 C 608.175 168.162, 610.988 170.961, 614.363 173.970 L 620.500 179.439 614.531 173.220 C 608.456 166.889, 607.914 166.427, 608.113 167.750" stroke="none" fill="#bc4444" fill-rule="evenodd"/><path d="M 956 512 L 956 1024 989.971 1024 L 1023.941 1024 1024.221 766.750 C 1024.374 625.263, 1024.375 394.863, 1024.222 254.750 L 1023.944 0 989.972 0 L 956 0 956 512 M 441.500 52.636 C 432.314 54.994, 420.228 60.578, 413 65.803 C 407.531 69.756, 379 98.257, 379 99.767 C 379 100.510, 378.613 100.879, 378.141 100.587 C 377.467 100.171, 174.489 303.029, 84.376 394.179 C 74.958 403.706, 65.733 412.919, 63.876 414.652 C 54.056 423.822, 16.768 462.165, 13.673 466.276 C 11.696 468.903, 8.744 473.853, 7.114 477.276 C 1.296 489.494, 1.030 491.004, 1.015 511.933 C 1.002 529.284, 1.230 532.017, 3.148 537.433 C 6.095 545.759, 11.126 555.025, 16.386 561.810 C 21.724 568.698, 78.297 625, 79.880 625 C 80.496 625, 81 625.533, 81 626.184 C 81 627.629, 192.523 739, 193.971 739 C 194.537 739, 195 739.381, 195 739.847 C 195 741.354, 197.710 744.106, 303.801 850.348 C 409.946 956.644, 415.524 961.899, 427 966.417 C 440.073 971.564, 439.648 971.500, 460.601 971.500 C 473.695 971.500, 481.537 971.099, 483.101 970.350 C 487.863 968.066, 494.990 965, 495.534 965 C 495.840 965, 499.332 962.772, 503.295 960.050 C 508.522 956.458, 564.198 901.339, 706.072 759.300 C 902.111 563.032, 911 553.849, 911 547.595 C 911 546.718, 911.398 546, 911.883 546 C 912.369 546, 913.048 545.212, 913.393 544.250 C 917.525 532.695, 918.790 527.275, 919.403 518.500 C 920.096 508.565, 917.843 488.639, 915.890 487.432 C 915.400 487.129, 915 486.229, 915 485.430 C 915 483.009, 910.897 474.903, 905.925 467.500 C 898.918 457.068, 797.277 355.153, 790.500 351.765 C 777.774 345.402, 764.456 347.074, 754.359 356.303 C 747.142 362.899, 744.691 368.296, 744.193 378.692 C 743.512 392.871, 743.153 392.390, 788.370 437.781 C 809.891 459.385, 827.650 477.498, 827.833 478.031 C 828.047 478.652, 796.382 479, 739.733 479 L 651.299 479 600.728 428.250 C 572.914 400.338, 537.260 364.511, 521.497 348.635 L 492.838 319.770 492.669 231.385 C 492.576 182.774, 492.828 143.113, 493.229 143.250 C 493.630 143.388, 536.605 186.079, 588.729 238.121 C 640.853 290.163, 684.850 333.424, 686.500 334.258 C 688.150 335.091, 692.337 336.565, 695.804 337.533 C 701.352 339.083, 702.790 339.136, 707.804 337.980 C 710.937 337.257, 714.789 336.028, 716.364 335.248 C 720.145 333.377, 728 326.091, 728 324.456 C 728 323.747, 728.448 323.017, 728.995 322.833 C 730.846 322.214, 734 311.581, 733.985 306.014 C 733.967 299.395, 732.572 295.102, 728.286 288.472 C 726.518 285.737, 701.294 259.875, 672.231 231 C 606.516 165.708, 617.173 176.343, 558.928 117.930 C 503.078 61.920, 501.877 60.927, 482 54.279 C 477.505 52.776, 445.942 51.495, 441.500 52.636 M 257.733 310.705 C 163.907 404.597, 87.360 481.774, 87.629 482.209 C 87.898 482.644, 127.648 483, 175.962 483 L 263.806 483 289.153 457.391 C 364.697 381.065, 419.592 326, 420.137 326 C 420.475 326, 422.599 324.261, 424.856 322.136 L 428.959 318.272 429.022 229.512 C 429.056 180.693, 428.914 140.580, 428.705 140.372 C 428.496 140.163, 351.559 216.813, 257.733 310.705 M 391.933 444.530 C 355.395 481.121, 325.500 511.496, 325.500 512.029 C 325.500 512.562, 355.644 543.146, 392.486 579.993 L 459.472 646.989 468.311 638.244 C 475.571 631.062, 592.471 513.982, 593.950 512.412 C 594.585 511.737, 460.753 378, 459.443 378 C 458.850 378, 428.470 407.938, 391.933 444.530 M 652 544.182 C 652 545.821, 495.265 702.150, 491.250 704.516 L 488 706.431 488 795.799 C 488 852.039, 488.353 885.043, 488.954 884.833 C 489.478 884.650, 534.016 840.513, 587.927 786.750 C 641.838 732.987, 686.379 689, 686.906 689 C 687.434 689, 688.117 688.212, 688.424 687.250 C 688.731 686.288, 720.712 653.779, 759.491 615.010 C 798.271 576.240, 830 544.177, 830 543.760 C 830 543.342, 789.950 543, 741 543 C 673.200 543, 652 543.282, 652 544.182 M 257.433 713 C 348.732 804.300, 423.559 879, 423.715 879 C 423.872 879, 424 839.280, 424 790.733 L 424 702.466 346.383 624.733 L 268.765 547 180.100 547 L 91.435 547 257.433 713" stroke="none" fill="#c44444" fill-rule="evenodd"/></svg>